<svg width="14" height="21" viewBox="0 0 14 21" fill="none" xmlns="http://www.w3.org/2000/svg">
<path d="M7.00002 0C8.85654 0 10.637 0.737498 11.9498 2.05025C13.2625 3.36301 14 5.14348 14 7C14 8.4 13.59 9.71 12.88 10.8L7.00002 20.21L1.12002 10.8C0.385937 9.66881 -0.00320823 8.3485 1.99224e-05 7C1.99224e-05 5.14348 0.737518 3.36301 2.05027 2.05025C3.36303 0.737498 5.1435 0 7.00002 0ZM7.00002 1.5C5.71451 1.49961 4.46948 1.94952 3.48118 2.77158C2.49288 3.59364 1.82375 4.73592 1.59002 6H4.17002C4.58002 4.83 5.69002 4 7.00002 4C8.31002 4 9.42002 4.83 9.83002 6H12.41C12.1763 4.73592 11.5072 3.59364 10.5189 2.77158C9.53056 1.94952 8.28553 1.49961 7.00002 1.5ZM7.00002 10C6.37902 10.0018 5.77287 9.81019 5.26573 9.45179C4.75859 9.09339 4.37563 8.58597 4.17002 8H1.59002C1.72002 8.69 1.97002 9.34 2.34002 9.91L2.38002 10C2.88113 10.7683 3.56615 11.3994 4.37292 11.836C5.1797 12.2726 6.0827 12.5008 7.00002 12.5C8.94002 12.5 10.64 11.5 11.62 10L11.66 9.91C12.03 9.34 12.28 8.69 12.41 8H9.83002C9.62441 8.58597 9.24145 9.09339 8.73431 9.45179C8.22717 9.81019 7.62102 10.0018 7.00002 10ZM7.00002 5.5C6.6022 5.5 6.22066 5.65804 5.93936 5.93934C5.65806 6.22064 5.50002 6.60218 5.50002 7C5.50002 7.39782 5.65806 7.77936 5.93936 8.06066C6.22066 8.34196 6.6022 8.5 7.00002 8.5C7.39784 8.5 7.77938 8.34196 8.06068 8.06066C8.34198 7.77936 8.50002 7.39782 8.50002 7C8.50002 6.60218 8.34198 6.22064 8.06068 5.93934C7.77938 5.65804 7.39784 5.5 7.00002 5.5Z" fill="black"/>
</svg>
