<svg width="250" height="91" viewBox="0 0 250 91" fill="none" xmlns="http://www.w3.org/2000/svg">
<path d="M46.4896 41.8229C45.6458 37.2812 39.7083 34.7812 33.8125 37.9896L35.3333 43.1771L37.7292 50.8542L38.8125 54.3437C43.2188 51.5104 47.6667 48.1042 46.4896 41.8125V41.8229ZM40.6354 48.8021L38.5833 42.1771L37.9688 40.0625C39.1223 39.8137 40.3248 39.9339 41.4063 40.4063C41.9583 40.6771 42.9271 41.2813 43.1354 42.4479C43.625 45.0521 42.75 46.9167 40.6354 48.7813V48.8021ZM135.51 34.6146C134.696 33.8645 133.736 33.29 132.691 32.9271C131.645 32.5641 130.535 32.4205 129.432 32.505C128.328 32.5895 127.253 32.9004 126.275 33.4184C125.296 33.9364 124.435 34.6503 123.745 35.5156C123.054 36.381 122.55 37.3792 122.262 38.4482C121.974 39.5172 121.91 40.6339 122.072 41.7289C122.235 42.8239 122.621 43.8737 123.208 44.8128C123.794 45.7519 124.567 46.5603 125.479 47.1875L136.083 35.1771L135.51 34.6146ZM125.5 43.0729C124.987 42.1372 124.774 41.0664 124.889 40.0056C125.005 38.9447 125.443 37.9449 126.146 37.1415C126.848 36.338 127.78 35.7697 128.816 35.5134C129.852 35.2571 130.942 35.3251 131.938 35.7083L125.5 43.0729ZM204.156 45.4167C204.25 45.7736 204.295 46.1414 204.292 46.5104C204.188 48.75 202.073 50.4896 199.563 50.3646C197.052 50.2812 195.083 48.375 195.188 46.1458C195.26 44.0312 197.135 42.375 199.448 42.2708C198.994 42.1813 198.535 42.1222 198.073 42.0938C193.854 41.9167 190.417 44.9063 190.281 48.6146C190.104 52.5729 193.292 55.8229 197.427 56C201.656 56.1563 205.083 53.1667 205.24 49.2188C205.281 47.8713 204.896 46.5437 204.156 45.4167ZM76.5104 49.9583C76.5104 52.2083 74.4583 54.0208 71.9479 54.0208C69.4271 54.0208 67.3854 52.2188 67.3854 49.9583C67.3854 47.8542 69.1875 46.125 71.4896 45.9167C71.0345 45.8446 70.5752 45.8029 70.1146 45.7917C65.9063 45.7917 62.5833 48.9167 62.5833 52.625C62.5833 56.6042 65.9167 59.7083 70.0417 59.7083C74.2604 59.7083 77.5729 56.6042 77.5729 52.625C77.5714 51.281 77.1367 49.9733 76.3333 48.8958C76.4444 49.2153 76.5035 49.5694 76.5104 49.9583ZM230.344 27.1979L228.469 34.8958L226.74 26.3542L203.635 21.2812L203.802 34.125L207.281 34.9063L207.031 37.2292L206.927 37.1563C202.615 34.8854 197.271 34.6563 192.24 36.5521C190.538 37.191 188.976 38.0313 187.552 39.0729L184.063 17.0729H168.698L168.281 19.6146H152.104L150.26 30.9167L148.906 29.2604C146.979 26.9044 144.557 25.0017 141.811 23.6874C139.066 22.3732 136.065 21.6797 133.021 21.6563L146.75 14.2708L137.188 0L119.865 19.9271L122.854 23.5729C120.261 24.6215 117.881 26.1361 115.833 28.0417L101 14.875L95.8229 24.8021L96.0208 15.2604L72.8333 22.6771L73.4271 35.1354L77.375 34.1146L77.9583 40.4167C73.4479 38.4062 68.0208 38.4375 63 40.5625C61.5274 41.1951 60.1328 41.9956 58.8438 42.9479C59.7587 39.2828 59.4777 35.4211 58.0417 31.9271C56.308 27.9545 53.3181 24.6609 49.5313 22.5521C46.8242 20.7843 43.736 19.6847 40.5208 19.3437C32.5 17.9375 22.8542 19.375 13.375 23.4271C10.0189 24.8333 6.7855 26.5161 3.70833 28.4583L0 30.8125L2.23958 34.5937L9.1875 46.3333C9.1875 46.3333 11.3125 49.9375 11.3229 49.9271L15.0833 48.0833L15.6042 47.8438L32.875 86.3854L34.5417 90.0833L38.3958 88.8542L47.7292 85.8542L51.8333 84.5521L50.75 80.3854L45.7917 61.3333C47.2153 60.2778 48.5451 59.1632 49.7812 57.9896C49.5 60.2708 49.6458 62.5729 50.2708 64.7813C51.5625 69.3958 54.6042 73.0417 58.7917 75.0521C63.3229 77.2396 68.8438 77.2396 73.9583 75.0729C76.5313 73.9896 78.8229 72.3958 80.7396 70.5L81.4479 78.0833L97.8021 75.6771L97.7813 61.0208L131.969 77.8958V61.5417C136.919 61.0607 141.707 59.5112 146 57L144.563 65.7813L163 68.6875L164.01 62.0521L168.812 70.9479L171.76 65.2708L172.844 74.5937L193.729 78.2604L192.625 71.2396C196.354 71.6493 200.121 70.9309 203.438 69.1771L202.604 76.6562L216.521 78.625L216.625 84.3229L231.104 88.8854L250 31.9687L230.344 27.1979ZM148.688 35.6354L149.646 34.625L148.479 41.8125L145.469 39.0833L148.688 35.6354ZM136.427 6.33334L141.5 13.2187L127.021 20.3958L126.01 18.875L136.427 6.33334ZM40.5729 59.3646L46.3542 81.5313L37 84.5208L17.8229 41.6875C16.7813 42.2396 14.8646 43.1458 13.0833 44.0104L6.14583 32.2812C8.92361 30.5174 11.9271 28.9549 15.1563 27.5937C24.1979 23.75 32.8333 22.5938 39.7396 23.8229C42.1667 24.1042 44.75 24.8125 47.0313 26.3229C50.1354 28.0729 52.5 30.5521 53.875 33.7292C57.2083 41.4375 51.625 52.5521 40.5729 59.3646ZM83.5521 55.4271C83.4479 58.7396 82.2292 62.0312 80.2083 64.8333C78.2281 67.6035 75.531 69.7822 72.4063 71.1354C64.2917 74.5729 56.1875 71.1354 54.0312 63.4271C51.9167 55.9896 56.8021 47.125 64.6562 43.7396C69.6875 41.6354 74.7188 42.125 78.3229 44.5729C80.5417 46.0937 82.25 48.3646 83.0417 51.2083C83.4339 52.5823 83.6061 54.0097 83.5521 55.4375V55.4271ZM127.677 71.0938L93.7813 54.125L93.8438 71.9063L85.0625 73.1042L84.4479 65.7813C87.1563 61.1354 88.1458 55.6562 86.7396 50.6354C86.0076 47.9448 84.569 45.4991 82.5729 43.5521L81.3125 28.625L77.3854 29.6458L77.2083 25.875L91.2917 21.6667L92.1563 36.2083L102.542 21.625L112.688 31.2812L98.5 46.2396L111.833 51.5208C113.313 54.3333 115.583 56.7292 118.438 58.5C121.188 60.1979 124.354 61.2083 127.698 61.5313V71.0938H127.677ZM110.073 46.5104L105.344 44.6979L109.75 40.4271C109.542 42.3993 109.646 44.4271 110.063 46.5104H110.073ZM146.969 50.9583C143.719 53.6562 139.99 55.4062 135.104 56.5833C134.071 56.8406 133.019 57.0182 131.958 57.1146C124.177 57.875 117.646 54.3021 115.167 48.5104C114.848 47.8134 114.607 47.0833 114.448 46.3333C113.302 41.4583 114.281 37.0938 116.688 33.6771C117.394 32.6781 118.216 31.7656 119.135 30.9583C121.564 28.8596 124.467 27.3831 127.594 26.6562C135.01 24.875 141.542 27.1354 145.542 32.0417L131.427 47.0833C132.636 47.1788 133.852 47.0625 135.021 46.7396C138.385 45.9167 140.271 44.1354 141.927 42.1979L147.573 47.2604L149.281 48.8229C148.547 49.5731 147.775 50.2858 146.969 50.9583ZM176.938 71.0312L173.875 50.6771L169.521 61.9063L163.01 47.8646H162.938L160.375 64.1146L149.531 62.2396L151.052 53.1771L152.26 51.9896L155.781 48.3646L152.354 45.3021L156 23.7083H166.937L169.667 38.6667L172.729 21.3438H180.563L183.813 42.4479C179.688 47.1458 177.667 53.4896 179.063 59.2708C179.603 61.6533 180.701 63.8732 182.268 65.7476C183.835 67.6221 185.824 69.0974 188.073 70.0521L188.49 72.7917L176.938 71.0312ZM203.969 64.3958C202.759 65.2625 201.438 65.9632 200.042 66.4792C197.487 67.5007 194.696 67.7788 191.99 67.2813C190.311 66.962 188.719 66.2871 187.323 65.3021C185.057 63.6412 183.467 61.2186 182.844 58.4792C182.01 54.9792 182.771 51.2292 184.656 47.9375C185.604 46.3333 186.812 44.8333 188.24 43.5312C189.823 42.1042 191.677 40.9271 193.729 40.1458C198.51 38.3542 203.229 38.9792 206.542 41.3542C208.758 42.9462 210.32 45.2896 210.938 47.9479C211.958 52.1771 210.75 56.6771 208.083 60.3125C206.932 61.8787 205.544 63.2562 203.969 64.3958ZM228.375 83.5729L220.354 81.1875L219.667 51.625L215.625 74.4375L206.875 73.0313L207.521 66.4688C213.219 61.6354 216.25 54.0208 214.594 47.1354C213.9 44.1562 212.325 41.4553 210.073 39.3854L210.813 31.6458L207.51 30.7604L207.719 26.6354L222.802 29.6562L227.875 53.6979L233.073 32.1458L244.531 34.6875L228.375 83.5729Z" fill="black"/>
</svg>
