<svg width="22" height="20" viewBox="0 0 22 20" fill="none" xmlns="http://www.w3.org/2000/svg">
<path d="M11 19C15.418 19 19 17.21 19 15C19 14.023 18.16 13.468 17.948 12.589C17.828 12.093 18 11.511 18 11C18.0006 9.90303 17.7433 8.82128 17.249 7.842C19.126 6.212 21 3.606 21 1C16.847 1 14.743 3.35 14.1 4.722C13.1347 4.25022 12.0744 4.005 11 4.005C9.92557 4.005 8.86531 4.25022 7.9 4.722C7.257 3.349 5.153 1 1 1C1 3.606 2.874 6.213 4.751 7.842C4.25668 8.82128 3.99943 9.90303 4 11C4 11.511 4.172 12.093 4.053 12.589C3.84 13.468 3 14.023 3 15C3 17.21 6.582 19 11 19Z" stroke="black" stroke-width="1.5" stroke-linecap="round" stroke-linejoin="round"/>
<path d="M9.99991 14C10.7929 14.66 11.2059 14.674 11.9999 14M7.99991 10.5H7.99091M14.0079 10.5H13.9989M4.10791 12.023C5.36191 12.425 7.19291 14.732 4.78491 16.938M17.8919 12.043C16.6379 12.443 14.8079 14.751 17.2149 16.957" stroke="black" stroke-width="1.5" stroke-linecap="round" stroke-linejoin="round"/>
</svg>
